<?xml version="1.0" standalone="no"?>
<!DOCTYPE svg PUBLIC "-//W3C//DTD SVG 20010904//EN"
 "http://www.w3.org/TR/2001/REC-SVG-20010904/DTD/svg10.dtd">
<svg version="1.0" xmlns="http://www.w3.org/2000/svg"
 width="512.000000pt" height="512.000000pt" viewBox="0 0 512.000000 512.000000"
 preserveAspectRatio="xMidYMid meet">
<metadata>
Created by potrace 1.11, written by Peter Selinger 2001-2013
</metadata>
<g transform="translate(0.000000,512.000000) scale(0.100000,-0.100000)"
fill="#000000" stroke="none">
<path d="M485 4260 c-65 -9 -126 -41 -175 -90 -50 -50 -75 -100 -89 -175 -15
-82 -15 -2797 0 -2881 19 -104 82 -184 184 -235 l50 -24 2070 -3 c1556 -2
2084 0 2125 9 68 14 128 48 174 99 46 51 62 84 75 155 15 82 15 2798 0 2880
-21 112 -77 188 -177 237 l-67 33 -2060 1 c-1133 1 -2083 -2 -2110 -6z m3382
-779 c194 -40 353 -159 433 -324 35 -73 52 -133 74 -259 l7 -38 -189 0 -188 0
-18 75 c-30 129 -113 213 -231 235 -70 13 -168 8 -227 -12 -94 -32 -169 -121
-214 -253 -25 -73 -28 -96 -32 -270 -2 -104 1 -229 6 -277 21 -168 100 -311
207 -373 60 -36 173 -58 255 -50 82 8 165 31 208 57 l32 20 0 149 0 149 -180
0 -180 0 0 155 0 155 369 0 368 0 7 -46 c3 -26 6 -191 6 -368 l0 -320 -68 -67
c-131 -128 -316 -194 -572 -205 -177 -8 -292 14 -430 82 -77 38 -110 62 -175
128 -93 93 -145 181 -195 326 -68 200 -65 621 5 838 67 206 186 353 356 435
52 26 126 53 164 61 103 21 291 20 402 -3z m-2308 -442 c84 -15 151 -49 215
-109 l51 -48 40 39 c98 97 265 143 438 120 191 -25 299 -115 356 -295 l25 -81
4 -517 3 -518 -185 0 -185 0 -3 488 c-3 464 -4 489 -23 526 -29 56 -60 75
-135 82 -81 8 -139 -7 -186 -48 -72 -63 -69 -39 -69 -568 l0 -475 -185 0 -185
0 -5 490 c-5 467 -6 492 -25 523 -35 58 -78 77 -175 77 -97 -1 -129 -13 -179
-70 l-31 -36 0 -494 0 -495 -185 0 -185 0 0 700 0 700 175 0 c175 0 175 0 175
-22 0 -13 3 -33 6 -45 6 -23 7 -23 33 -4 108 76 266 106 420 80z"/>
</g>
</svg>
